<svg width="15" height="15" viewBox="0 0 15 15" fill="none" xmlns="http://www.w3.org/2000/svg">
<path d="M1.66667 15C1.20833 15 0.815972 14.8368 0.489583 14.5104C0.163194 14.184 0 13.7917 0 13.3333V1.66667C0 1.20833 0.163194 0.815972 0.489583 0.489583C0.815972 0.163194 1.20833 0 1.66667 0H9.16667C8.88889 0.361111 8.68056 0.756944 8.54167 1.1875C8.40278 1.61806 8.33333 2.05556 8.33333 2.5C8.33333 3.65278 8.73958 4.63542 9.55208 5.44792C10.3646 6.26042 11.3472 6.66667 12.5 6.66667C12.9444 6.66667 13.3819 6.59722 13.8125 6.45833C14.2431 6.31944 14.6389 6.11111 15 5.83333V13.3333C15 13.7917 14.8368 14.184 14.5104 14.5104C14.184 14.8368 13.7917 15 13.3333 15H1.66667ZM2.5 11.6667H12.5L9.375 7.5L6.875 10.8333L5 8.33333L2.5 11.6667ZM11.6667 5V3.33333H10V1.66667H11.6667V0H13.3333V1.66667H15V3.33333H13.3333V5H11.6667Z" fill="#004635"/>
</svg>
